<svg width="22" height="30" viewBox="0 0 22 30" fill="none" xmlns="http://www.w3.org/2000/svg">
<rect width="22" height="30" fill="#E5E5E5"/>
<g clip-path="url(#clip0_0_1)">
<rect width="1440" height="1604" transform="translate(-366 -502)" fill="#F1F1F1"/>
<g filter="url(#filter0_d_0_1)">
<rect x="-38" y="-314" width="785" height="453" rx="8" fill="white"/>
</g>
<path d="M11 0C5.195 0 0.5 4.695 0.5 10.5C0.5 18.375 11 30 11 30C11 30 21.5 18.375 21.5 10.5C21.5 4.695 16.805 0 11 0ZM11 14.25C8.93 14.25 7.25 12.57 7.25 10.5C7.25 8.43 8.93 6.75 11 6.75C13.07 6.75 14.75 8.43 14.75 10.5C14.75 12.57 13.07 14.25 11 14.25Z" fill="#8A8C90"/>
</g>
<defs>
<filter id="filter0_d_0_1" x="-42" y="-318" width="793" height="461" filterUnits="userSpaceOnUse" color-interpolation-filters="sRGB">
<feFlood flood-opacity="0" result="BackgroundImageFix"/>
<feColorMatrix in="SourceAlpha" type="matrix" values="0 0 0 0 0 0 0 0 0 0 0 0 0 0 0 0 0 0 127 0" result="hardAlpha"/>
<feOffset/>
<feGaussianBlur stdDeviation="2"/>
<feColorMatrix type="matrix" values="0 0 0 0 0.0196078 0 0 0 0 0.0196078 0 0 0 0 0.0196078 0 0 0 0.08 0"/>
<feBlend mode="normal" in2="BackgroundImageFix" result="effect1_dropShadow_0_1"/>
<feBlend mode="normal" in="SourceGraphic" in2="effect1_dropShadow_0_1" result="shape"/>
</filter>
<clipPath id="clip0_0_1">
<rect width="1440" height="1604" fill="white" transform="translate(-366 -502)"/>
</clipPath>
</defs>
</svg>
